<svg width="209" height="70" viewBox="0 0 209 70" fill="none" xmlns="http://www.w3.org/2000/svg">
<path d="M34.1837 46.55L25.1419 23.45M34.1837 46.55H53.179C53.5009 46.55 53.7031 46.2028 53.5443 45.9228L42.4739 26.4018C42.3958 26.264 42.2448 26.1821 42.0865 26.1891C35.64 26.4768 31.8812 25.8513 25.1419 23.45M34.1837 46.55H28.35H27.5907H25.1419M25.1419 23.45L16.3243 45.9769C16.2165 46.2524 16.4196 46.55 16.7154 46.55H22.925H25.1419M25.1419 23.45V46.55" stroke="white" stroke-width="2"/>
<path d="M60.6873 34.96C60.6873 33.5733 60.9873 32.34 61.5873 31.26C62.1873 30.1667 63.0207 29.32 64.0873 28.72C65.1673 28.1067 66.3873 27.8 67.7473 27.8C69.414 27.8 70.8407 28.24 72.0273 29.12C73.214 30 74.0073 31.2 74.4073 32.72H70.6473C70.3673 32.1333 69.9673 31.6867 69.4473 31.38C68.9407 31.0733 68.3607 30.92 67.7073 30.92C66.654 30.92 65.8007 31.2867 65.1473 32.02C64.494 32.7533 64.1673 33.7333 64.1673 34.96C64.1673 36.1867 64.494 37.1667 65.1473 37.9C65.8007 38.6333 66.654 39 67.7073 39C68.3607 39 68.9407 38.8467 69.4473 38.54C69.9673 38.2333 70.3673 37.7867 70.6473 37.2H74.4073C74.0073 38.72 73.214 39.92 72.0273 40.8C70.8407 41.6667 69.414 42.1 67.7473 42.1C66.3873 42.1 65.1673 41.8 64.0873 41.2C63.0207 40.5867 62.1873 39.74 61.5873 38.66C60.9873 37.58 60.6873 36.3467 60.6873 34.96ZM75.8217 36.4C75.8217 35.2533 76.0351 34.2467 76.4617 33.38C76.9017 32.5133 77.4951 31.8467 78.2417 31.38C78.9884 30.9133 79.8217 30.68 80.7417 30.68C81.5284 30.68 82.2151 30.84 82.8017 31.16C83.4017 31.48 83.8617 31.9 84.1817 32.42V30.84H87.6017V42H84.1817V40.42C83.8484 40.94 83.3817 41.36 82.7817 41.68C82.1951 42 81.5084 42.16 80.7217 42.16C79.8151 42.16 78.9884 41.9267 78.2417 41.46C77.4951 40.98 76.9017 40.3067 76.4617 39.44C76.0351 38.56 75.8217 37.5467 75.8217 36.4ZM84.1817 36.42C84.1817 35.5667 83.9417 34.8933 83.4617 34.4C82.9951 33.9067 82.4217 33.66 81.7417 33.66C81.0617 33.66 80.4817 33.9067 80.0017 34.4C79.5351 34.88 79.3017 35.5467 79.3017 36.4C79.3017 37.2533 79.5351 37.9333 80.0017 38.44C80.4817 38.9333 81.0617 39.18 81.7417 39.18C82.4217 39.18 82.9951 38.9333 83.4617 38.44C83.9417 37.9467 84.1817 37.2733 84.1817 36.42ZM104.316 30.72C105.703 30.72 106.803 31.14 107.616 31.98C108.443 32.82 108.856 33.9867 108.856 35.48V42H105.456V35.94C105.456 35.22 105.263 34.6667 104.876 34.28C104.503 33.88 103.983 33.68 103.316 33.68C102.649 33.68 102.123 33.88 101.736 34.28C101.363 34.6667 101.176 35.22 101.176 35.94V42H97.7759V35.94C97.7759 35.22 97.5826 34.6667 97.1959 34.28C96.8226 33.88 96.3026 33.68 95.6359 33.68C94.9693 33.68 94.4426 33.88 94.0559 34.28C93.6826 34.6667 93.4959 35.22 93.4959 35.94V42H90.0759V30.84H93.4959V32.24C93.8426 31.7733 94.2959 31.4067 94.8559 31.14C95.4159 30.86 96.0493 30.72 96.7559 30.72C97.5959 30.72 98.3426 30.9 98.9959 31.26C99.6626 31.62 100.183 32.1333 100.556 32.8C100.943 32.1867 101.469 31.6867 102.136 31.3C102.803 30.9133 103.529 30.72 104.316 30.72ZM114.668 32.42C115.001 31.9 115.461 31.48 116.048 31.16C116.634 30.84 117.321 30.68 118.108 30.68C119.028 30.68 119.861 30.9133 120.608 31.38C121.354 31.8467 121.941 32.5133 122.368 33.38C122.808 34.2467 123.028 35.2533 123.028 36.4C123.028 37.5467 122.808 38.56 122.368 39.44C121.941 40.3067 121.354 40.98 120.608 41.46C119.861 41.9267 119.028 42.16 118.108 42.16C117.334 42.16 116.648 42 116.048 41.68C115.461 41.36 115.001 40.9467 114.668 40.44V47.32H111.248V30.84H114.668V32.42ZM119.548 36.4C119.548 35.5467 119.308 34.88 118.828 34.4C118.361 33.9067 117.781 33.66 117.088 33.66C116.408 33.66 115.828 33.9067 115.348 34.4C114.881 34.8933 114.648 35.5667 114.648 36.42C114.648 37.2733 114.881 37.9467 115.348 38.44C115.828 38.9333 116.408 39.18 117.088 39.18C117.768 39.18 118.348 38.9333 118.828 38.44C119.308 37.9333 119.548 37.2533 119.548 36.4ZM129.062 30.68C129.849 30.68 130.535 30.84 131.122 31.16C131.722 31.48 132.182 31.9 132.502 32.42V30.84H135.922V41.98C135.922 43.0067 135.715 43.9333 135.302 44.76C134.902 45.6 134.282 46.2667 133.442 46.76C132.615 47.2533 131.582 47.5 130.342 47.5C128.689 47.5 127.349 47.1067 126.322 46.32C125.295 45.5467 124.709 44.4933 124.562 43.16H127.942C128.049 43.5867 128.302 43.92 128.702 44.16C129.102 44.4133 129.595 44.54 130.182 44.54C130.889 44.54 131.449 44.3333 131.862 43.92C132.289 43.52 132.502 42.8733 132.502 41.98V40.4C132.169 40.92 131.709 41.3467 131.122 41.68C130.535 42 129.849 42.16 129.062 42.16C128.142 42.16 127.309 41.9267 126.562 41.46C125.815 40.98 125.222 40.3067 124.782 39.44C124.355 38.56 124.142 37.5467 124.142 36.4C124.142 35.2533 124.355 34.2467 124.782 33.38C125.222 32.5133 125.815 31.8467 126.562 31.38C127.309 30.9133 128.142 30.68 129.062 30.68ZM132.502 36.42C132.502 35.5667 132.262 34.8933 131.782 34.4C131.315 33.9067 130.742 33.66 130.062 33.66C129.382 33.66 128.802 33.9067 128.322 34.4C127.855 34.88 127.622 35.5467 127.622 36.4C127.622 37.2533 127.855 37.9333 128.322 38.44C128.802 38.9333 129.382 39.18 130.062 39.18C130.742 39.18 131.315 38.9333 131.782 38.44C132.262 37.9467 132.502 37.2733 132.502 36.42ZM141.816 32.7C142.216 32.0867 142.716 31.6067 143.316 31.26C143.916 30.9 144.583 30.72 145.316 30.72V34.34H144.376C143.523 34.34 142.883 34.5267 142.456 34.9C142.03 35.26 141.816 35.9 141.816 36.82V42H138.396V30.84H141.816V32.7ZM152.031 42.16C150.938 42.16 149.951 41.9267 149.071 41.46C148.204 40.9933 147.518 40.3267 147.011 39.46C146.518 38.5933 146.271 37.58 146.271 36.42C146.271 35.2733 146.524 34.2667 147.031 33.4C147.538 32.52 148.231 31.8467 149.111 31.38C149.991 30.9133 150.978 30.68 152.071 30.68C153.164 30.68 154.151 30.9133 155.031 31.38C155.911 31.8467 156.604 32.52 157.111 33.4C157.618 34.2667 157.871 35.2733 157.871 36.42C157.871 37.5667 157.611 38.58 157.091 39.46C156.584 40.3267 155.884 40.9933 154.991 41.46C154.111 41.9267 153.124 42.16 152.031 42.16ZM152.031 39.2C152.684 39.2 153.238 38.96 153.691 38.48C154.158 38 154.391 37.3133 154.391 36.42C154.391 35.5267 154.164 34.84 153.711 34.36C153.271 33.88 152.724 33.64 152.071 33.64C151.404 33.64 150.851 33.88 150.411 34.36C149.971 34.8267 149.751 35.5133 149.751 36.42C149.751 37.3133 149.964 38 150.391 38.48C150.831 38.96 151.378 39.2 152.031 39.2ZM170.705 30.84V42H167.285V40.48C166.939 40.9733 166.465 41.3733 165.865 41.68C165.279 41.9733 164.625 42.12 163.905 42.12C163.052 42.12 162.299 41.9333 161.645 41.56C160.992 41.1733 160.485 40.62 160.125 39.9C159.765 39.18 159.585 38.3333 159.585 37.36V30.84H162.985V36.9C162.985 37.6467 163.179 38.2267 163.565 38.64C163.952 39.0533 164.472 39.26 165.125 39.26C165.792 39.26 166.319 39.0533 166.705 38.64C167.092 38.2267 167.285 37.6467 167.285 36.9V30.84H170.705ZM179.962 30.72C181.269 30.72 182.309 31.1467 183.082 32C183.869 32.84 184.262 34 184.262 35.48V42H180.862V35.94C180.862 35.1933 180.669 34.6133 180.282 34.2C179.895 33.7867 179.375 33.58 178.722 33.58C178.069 33.58 177.549 33.7867 177.162 34.2C176.775 34.6133 176.582 35.1933 176.582 35.94V42H173.162V30.84H176.582V32.32C176.929 31.8267 177.395 31.44 177.982 31.16C178.569 30.8667 179.229 30.72 179.962 30.72ZM185.958 36.4C185.958 35.2533 186.172 34.2467 186.598 33.38C187.038 32.5133 187.632 31.8467 188.378 31.38C189.125 30.9133 189.958 30.68 190.878 30.68C191.612 30.68 192.278 30.8333 192.878 31.14C193.492 31.4467 193.972 31.86 194.318 32.38V27.2H197.738V42H194.318V40.4C193.998 40.9333 193.538 41.36 192.938 41.68C192.352 42 191.665 42.16 190.878 42.16C189.958 42.16 189.125 41.9267 188.378 41.46C187.632 40.98 187.038 40.3067 186.598 39.44C186.172 38.56 185.958 37.5467 185.958 36.4ZM194.318 36.42C194.318 35.5667 194.078 34.8933 193.598 34.4C193.132 33.9067 192.558 33.66 191.878 33.66C191.198 33.66 190.618 33.9067 190.138 34.4C189.672 34.88 189.438 35.5467 189.438 36.4C189.438 37.2533 189.672 37.9333 190.138 38.44C190.618 38.9333 191.198 39.18 191.878 39.18C192.558 39.18 193.132 38.9333 193.598 38.44C194.078 37.9467 194.318 37.2733 194.318 36.42Z" fill="white"/>
</svg>
